<?xml version="1.0" standalone="no"?><!DOCTYPE svg PUBLIC "-//W3C//DTD SVG 1.1//EN" "http://www.w3.org/Graphics/SVG/1.1/DTD/svg11.dtd"><svg t="1681745376846" class="icon" viewBox="0 0 1317 1024" version="1.1" xmlns="http://www.w3.org/2000/svg" p-id="3776" xmlns:xlink="http://www.w3.org/1999/xlink" width="1646.25" height="1280"><path d="M1097.142857 292.571429l0 438.857143-950.857143 0 0-438.857143 950.857143 0zm73.142857 329.142857l73.142857 0 0-219.428571-73.142857 0 0-164.571429q0-8-5.142857-13.142857t-13.142857-5.142857l-1060.571429 0q-8 0-13.142857 5.142857t-5.142857 13.142857l0 548.571429q0 8 5.142857 13.142857t13.142857 5.142857l1060.571429 0q8 0 13.142857-5.142857t5.142857-13.142857l0-164.571429zm146.285714-219.428571l0 219.428571q0 30.285714-21.428571 51.714286t-51.714286 21.428571l0 91.428571q0 37.714286-26.857143 64.571429t-64.571429 26.857143l-1060.571429 0q-37.714286 0-64.571429-26.857143t-26.857143-64.571429l0-548.571429q0-37.714286 26.857143-64.571429t64.571429-26.857143l1060.571429 0q37.714286 0 64.571429 26.857143t26.857143 64.571429l0 91.428571q30.285714 0 51.714286 21.428571t21.428571 51.714286z" p-id="3777"></path></svg>