<?xml version="1.0" standalone="no"?><!DOCTYPE svg PUBLIC "-//W3C//DTD SVG 1.1//EN" "http://www.w3.org/Graphics/SVG/1.1/DTD/svg11.dtd"><svg t="1682011244674" class="icon" viewBox="0 0 1325 1024" version="1.1" xmlns="http://www.w3.org/2000/svg" p-id="2662" xmlns:xlink="http://www.w3.org/1999/xlink" width="1656.25" height="1280"><path d="M999.905882 688.188235l-9.035294-33.129411h75.294118C1005.929412 814.682353 847.811765 933.647059 665.6 933.647059 432.188235 933.647059 240.941176 746.917647 240.941176 513.505882S432.188235 93.364706 671.623529 90.352941c191.247059 0 352.376471 126.494118 406.588236 301.176471H889.976471L787.576471 137.035294 662.588235 427.670588 543.623529 137.035294 319.247059 682.164706l90.352941 129.505882h502.964706l87.341176-123.482353zM902.023529 436.705882l-6.023529-21.082353h182.211765c0 9.035294 3.011765 12.047059 3.011764 21.082353H902.023529zM623.435294 679.152941L737.882353 391.529412l118.964706 295.152941-472.847059-6.023529L501.458824 391.529412l121.97647 287.623529z m290.635294-201.788235l-9.035294-21.082353h176.188235c3.011765 10.541176 3.011765 13.552941 3.011765 21.082353H914.070588z m33.129412 79.811765l-9.035294-21.082353H1084.235294V557.176471h-137.035294z m137.035294-58.729412v21.082353H929.129412l-9.035294-21.082353H1084.235294z m-105.411765 137.035294l-9.035294-21.082353h102.4c0 9.035294-3.011765 12.047059-3.011764 21.082353h-90.352942z m-16.564705-42.164706l-9.035295-21.082353h124.988236c0 9.035294-3.011765 12.047059-3.011765 21.082353h-112.941176z" fill="#E50012" p-id="2663"></path></svg>